<svg width="500" height="500" xmlns="http://www.w3.org/2000/svg">
 <!-- Created with Method Draw - http://github.com/duopixel/Method-Draw/ -->

 <g>
  <title>background</title>
  <rect fill="none" id="canvas_background" height="502" width="502" y="-1" x="-1"/>
  <g display="none" overflow="visible" y="0" x="0" height="100%" width="100%" id="canvasGrid">
   <rect fill="url(#gridpattern)" stroke-width="0" y="1" x="1" height="400" width="580"/>
  </g>
 </g>
 <g>
  <title>Layer 1</title>
  <linearGradient y2="0.652709" y1="0.133765" x2="0.937378" x1="-0.063447" id="svg_7">
   <stop stop-color="#3B5998" offset="0"/>
   <stop stop-color="#336699" offset="1"/>
  </linearGradient>
  <g stroke="null" id="svg_9">
   <path stroke="null" id="svg_6" fill="#fbfbfb" d="m286.838217,498.658761l0,-221.030969l73.676416,0l18.419104,-92.09552l-92.09552,0l0,-36.838208c0,-36.838208 18.455237,-55.257312 55.257312,-55.257312l36.838208,0l0,-92.09552c-18.419104,0 -41.260169,0 -73.676416,0c-67.690422,0 -110.514624,53.065258 -110.514624,128.933728l0,55.257312l-73.676416,0l0,92.09552l73.676416,0l0,221.029248l92.09552,0.001721l0,0z"/>
  </g>
 </g>
</svg>