<svg width="500" height="500" xmlns="http://www.w3.org/2000/svg">
 <!-- Created with Method Draw - http://github.com/duopixel/Method-Draw/ -->

 <g>
  <title>background</title>
  <rect fill="none" id="canvas_background" height="502" width="502" y="-1" x="-1"/>
  <g display="none" overflow="visible" y="0" x="0" height="100%" width="100%" id="canvasGrid">
   <rect fill="url(#gridpattern)" stroke-width="0" y="0" x="0" height="100%" width="100%"/>
  </g>
 </g>
 <g>
  <title>Layer 1</title>
  <g stroke="null" id="svg_19">
   <path stroke="null" id="svg_17" fill-rule="evenodd" fill="#222222" d="m339.326109,504.407007l-68.764092,0l-68.832925,0c0,0 0.189291,-39.763703 0,-67.055148c-94.180649,19.747741 -120.457618,-50.291361 -120.457618,-50.291361c-17.208231,-33.527574 -34.416462,-50.291361 -34.416462,-50.291361c-34.416462,-19.915379 0,-16.763787 0,-16.763787c34.416462,0 51.624693,33.527574 51.624693,33.527574c30.200446,49.972849 83.941751,41.926232 103.249387,33.527574c0,-16.763787 7.537205,-42.110633 17.208231,-50.291361c-75.165554,-8.247783 -137.734682,-50.291361 -137.734682,-134.110297s17.277064,-100.582723 34.485295,-117.34651c-3.476063,-8.264547 -17.879352,-38.808167 0.533455,-83.818936c0,0 33.814174,0 68.230636,50.291361c17.053357,-16.612913 68.832925,-16.763787 86.058364,-16.763787c17.191023,0 68.97059,0.150874 86.023947,16.763787c34.416462,-50.291361 68.299469,-50.291361 68.299469,-50.291361c18.412807,45.010768 4.009518,75.554389 0.533455,83.818936c17.208231,16.763787 34.416462,33.527574 34.416462,117.34651s-62.500295,125.862514 -137.665849,134.110297c9.671026,8.180728 17.208231,37.04797 17.208231,50.291361l0,117.34651z" clip-rule="evenodd"/>
  </g>
 </g>
</svg>