<svg width="500.00000000000006" height="500.00000000000006" xmlns="http://www.w3.org/2000/svg" stroke="null" style="vector-effect: non-scaling-stroke;">
 <!-- Created with Method Draw - http://github.com/duopixel/Method-Draw/ -->

 <g>
  <title>background</title>
  <rect fill="none" id="canvas_background" height="502" width="502" y="-1" x="-1"/>
 </g>
 <g>
  <title>Layer 1</title>
  <g stroke="null" id="svg_7">
   <path stroke="null" id="svg_5" fill-rule="evenodd" fill="#222222" d="m337.792356,500.184885l-66.312026,0l-66.378404,0c0,0 0.182541,-39.362394 0,-66.378404c-90.822252,19.54844 -116.162208,-49.783803 -116.162208,-49.783803c-16.594601,-33.189202 -33.189202,-49.783803 -33.189202,-49.783803c-33.189202,-19.714386 0,-16.594601 0,-16.594601c33.189202,0 49.783803,33.189202 49.783803,33.189202c29.123525,49.468506 80.948464,41.503097 99.567606,33.189202c0,-16.594601 7.268435,-41.685638 16.594601,-49.783803c-72.485218,-8.164544 -132.823187,-49.783803 -132.823187,-132.756809s16.660979,-99.567606 33.255581,-116.162208c-3.352109,-8.181138 -17.241791,-38.416501 0.514433,-82.973005c0,0 32.608391,0 65.797593,49.783803c16.44525,-16.44525 66.378404,-16.594601 82.9896,-16.594601c16.578006,0 66.511161,0.149351 82.956411,16.594601c33.189202,-49.783803 65.863972,-49.783803 65.863972,-49.783803c17.756223,44.556504 3.866542,74.791867 0.514433,82.973005c16.594601,16.594601 33.189202,33.189202 33.189202,116.162208s-60.271591,124.592265 -132.756809,132.756809c9.326166,8.098165 16.594601,36.674068 16.594601,49.783803l0,116.162208z" clip-rule="evenodd"/>
  </g>
 </g>
</svg>