<svg width="500" height="500" xmlns="http://www.w3.org/2000/svg">
 <!-- Created with Method Draw - http://github.com/duopixel/Method-Draw/ -->

 <g>
  <title>background</title>
  <rect fill="none" id="canvas_background" height="502" width="502" y="-1" x="-1"/>
  <g display="none" overflow="visible" y="0" x="0" height="100%" width="100%" id="canvasGrid">
   <rect fill="url(#gridpattern)" stroke-width="0" y="0" x="0" height="100%" width="100%"/>
  </g>
 </g>
 <g>
  <title>Layer 1</title>
  <g stroke="null" id="svg_12">
   <g stroke="null" transform="matrix(1.7309639268667216,0,0,1.7309639268667216,-4082.837206977278,-4079.164374545304) " id="svg_9">
    <linearGradient stroke="null" transform="translate(0,-0.5777420997619629) translate(-1.7332326173782349,4.547473508864641e-13) translate(10.940352439880371,18.0194034576416) translate(134.6324462890625,124.27610778808594) translate(2103.2958984375,0) translate(0,2103.2958984375) " y2="1.488864" y1="-0.80575" x2="2.12973" x1="-1.420416" id="svg_7">
     <stop stroke="null" stop-color="#DD272D" offset="0"/>
     <stop stroke="null" stop-color="#CA2429" offset="0.5153"/>
     <stop stroke="null" stop-color="#B22025" offset="1"/>
    </linearGradient>
    <path stroke="null" id="svg_10" fill="#fbfbfb" d="m2506.960465,2522.748668c-8.073,-5.706 -23.481,-19.584 -23.481,-27.747c0,-9.558 2.727,-14.274 17.118,-25.515c14.742,-11.529 25.191,-30.42 25.191,-49.284c0,-22.428 -10.008,-36.189 -28.764,-54.189l28.296,0l19.962,-9c0,0 -66.906,0 -89.217,0c-40.005,0 -77.634,30.258 -77.634,65.349c0,35.874 27.261,64.809 67.959,64.809c2.826,0 5.571,-0.072 8.271,-0.252c-2.646,5.04 -4.527,10.728 -4.527,16.641c0,9.972 5.364,18.054 12.132,24.66c-5.103,0 -10.062,0.144 -15.453,0.144c-49.563,-0.009 -87.678,31.536 -87.678,64.26c0,32.211 41.805,52.389 91.332,52.389c56.484,0 87.669,-32.058 87.669,-64.278c0.009,-25.839 -7.623,-41.301 -31.176,-57.987zm-47.664,-44.703c-22.995,-0.684 -44.829,-25.713 -48.798,-55.881c-3.96,-30.195 11.448,-53.298 34.416,-52.614c22.986,0.702 44.829,24.912 48.807,55.098c3.969,30.195 -11.457,54.081 -34.425,53.397zm-9.009,152.703c-34.245,0 -58.977,-21.663 -58.977,-47.709c0,-25.506 30.672,-46.755 64.926,-46.386c7.992,0.09 15.435,1.368 22.185,3.555c18.594,12.942 31.932,20.25 35.712,34.965c0.684,2.988 1.089,6.075 1.089,9.207c0,26.028 -16.785,46.368 -64.935,46.368z"/>
    <linearGradient stroke="null" transform="translate(0,-0.5777420997619629) translate(-1.7332326173782349,4.547473508864641e-13) translate(10.940352439880371,18.0194034576416) translate(134.6324462890625,124.27610778808594) translate(2103.2958984375,0) translate(0,2103.2958984375) " y2="2.612203" y1="-3.506768" x2="2.612203" x1="-3.506769" id="svg_6">
     <stop stroke="null" stop-color="#DD272D" offset="0"/>
     <stop stroke="null" stop-color="#CA2429" offset="0.5153"/>
     <stop stroke="null" stop-color="#B22025" offset="1"/>
    </linearGradient>
    <polygon stroke="null" id="svg_11" points="2602.135498046875,2483.013566493988 2602.135498046875,2438.013566493988 2584.135498046875,2438.013566493988 2584.135498046875,2483.013566493988 2539.135498046875,2483.013566493988 2539.135498046875,2501.013566493988 2584.135498046875,2501.013566493988 2584.135498046875,2546.013566493988 2602.135498046875,2546.013566493988 2602.135498046875,2501.013566493988 2647.135498046875,2501.013566493988 2647.135498046875,2483.013566493988 " fill="#fbfbfb"/>
   </g>
  </g>
 </g>
</svg>