<svg width="500" height="500" xmlns="http://www.w3.org/2000/svg">
 <!-- Created with Method Draw - http://github.com/duopixel/Method-Draw/ -->

 <g>
  <title>background</title>
  <rect fill="none" id="canvas_background" height="502" width="502" y="-1" x="-1"/>
  <g display="none" overflow="visible" y="0" x="0" height="100%" width="100%" id="canvasGrid">
   <rect fill="url(#gridpattern)" stroke-width="0" y="0" x="0" height="100%" width="100%"/>
  </g>
 </g>
 <g>
  <title>Layer 1</title>
  <g stroke="null" id="svg_6">
   <path fill="#fbfbfb" id="svg_5" d="m41.666678,120.63335l416.666635,0c19.166665,0 34.72222,-19.318753 34.72222,-43.122218s-15.555554,-43.122218 -34.72222,-43.122218l-416.666635,0c-19.166665,0 -34.72222,19.318753 -34.72222,43.122218s15.555554,43.122218 34.72222,43.122218zm416.666635,86.244435l-416.666635,0c-19.166665,0 -34.72222,19.318753 -34.72222,43.122218s15.555554,43.122218 34.72222,43.122218l416.666635,0c19.166665,0 34.72222,-19.318753 34.72222,-43.122218s-15.555554,-43.122218 -34.72222,-43.122218zm0,172.48887l-416.666635,0c-19.166665,0 -34.72222,19.318753 -34.72222,43.122218s15.555554,43.122218 34.72222,43.122218l416.666635,0c19.166665,0 34.72222,-19.318753 34.72222,-43.122218s-15.555554,-43.122218 -34.72222,-43.122218z"/>
  </g>
 </g>
</svg>