<svg width="500" height="500" xmlns="http://www.w3.org/2000/svg">
 <!-- Created with Method Draw - http://github.com/duopixel/Method-Draw/ -->

 <g>
  <title>background</title>
  <rect fill="none" id="canvas_background" height="502" width="502" y="-1" x="-1"/>
  <g display="none" overflow="visible" y="0" x="0" height="100%" width="100%" id="canvasGrid">
   <rect fill="url(#gridpattern)" stroke-width="0" y="0" x="0" height="100%" width="100%"/>
  </g>
 </g>
 <g>
  <title>Layer 1</title>
  <desc transform="matrix(7.716048794028211,0,0,7.716048794028211,0,0) "/>

  <desc transform="matrix(7.716048794028211,0,0,7.716048794028211,0,0) "/>

  <desc transform="matrix(7.716048794028211,0,0,7.716048794028211,0,0) "/>

  <g stroke="null" id="svg_51">
   <g stroke="null" transform="matrix(18.352411347104923,0,0,18.352411347104923,-505.1005373768252,-415.949485250027) " id="svg_46" fill-rule="evenodd" fill="none">
    <g stroke="null" id="svg_48"/>
    <g stroke="null" id="svg_47" fill="#000000">
     <path stroke="null" fill="#222222" id="svg_50" d="m34.18002,29.917895c-0.566666,0 -1.12,0.046667 -1.666666,0.115l0,3.368334c0.543333,-0.091667 1.096666,-0.15 1.666666,-0.15c5.523334,0 10,4.478333 10,10c0,0.57 -0.058333,1.123333 -0.15,1.666666l3.368334,0c0.068333,-0.546666 0.115,-1.1 0.115,-1.666666c0,-7.363334 -5.97,-13.333334 -13.333334,-13.333334l0,0zm0.019724,-6.923077c-0.57,0 -1.129881,0.038787 -1.68639,0.08432l0,3.372781c0.554822,-0.055651 1.11639,-0.08432 1.68639,-0.08432c9.313935,0 16.863906,7.551657 16.863906,16.863906c0,0.57 -0.030355,1.131568 -0.086006,1.68639l3.372781,0c0.047219,-0.556509 0.086006,-1.11639 0.086006,-1.68639c0,-11.17571 -9.060977,-20.236687 -20.236687,-20.236687l0,0zm0.044379,15c-2.866154,0 -5.192308,2.324423 -5.192308,5.192308c0,2.867885 2.326154,5.192308 5.192308,5.192308c2.866154,0 5.192308,-2.324423 5.192308,-5.192308c0,-2.867885 -2.326154,-5.192308 -5.192308,-5.192308l0,0z"/>
    </g>
   </g>
  </g>
 </g>
</svg>