<svg width="500" height="500" xmlns="http://www.w3.org/2000/svg">
 <!-- Created with Method Draw - http://github.com/duopixel/Method-Draw/ -->

 <g>
  <title>background</title>
  <rect fill="none" id="canvas_background" height="502" width="502" y="-1" x="-1"/>
  <g display="none" overflow="visible" y="0" x="0" height="100%" width="100%" id="canvasGrid">
   <rect fill="url(#gridpattern)" stroke-width="0" y="0" x="0" height="100%" width="100%"/>
  </g>
 </g>
 <g>
  <title>Layer 1</title>
  <g stroke="null" id="svg_7">
   <g stroke="null" transform="matrix(15.628721980373736,0,0,15.628721980373736,225.25266798855563,272.5287847715002) " id="svg_4">
    <path fill="#fbfbfb" stroke="null" id="svg_6" d="m11.406349,14.558503l6.155,0c0,-17.646 -14.355,-32.011 -31.999,-32.011l0,6.138c14.247,-0.001 25.844,11.608 25.844,25.873zm-21.583,0.011c2.36,0 4.267,-1.896 4.267,-4.246c0,-2.337 -1.907,-4.254 -4.267,-4.254c-2.35,0 -4.26,1.917 -4.26,4.254c-0.002,2.35 1.908,4.246 4.26,4.246zm10.705,-0.009l0,0l6.162,0c0,-11.654 -9.481,-21.134 -21.129,-21.134l0,6.136c3.995,0 7.753,1.562 10.581,4.393c2.826,2.822 4.386,6.596 4.386,10.605z"/>
   </g>
  </g>
 </g>
</svg>