<svg width="500" height="500" xmlns="http://www.w3.org/2000/svg">
 <!-- Created with Method Draw - http://github.com/duopixel/Method-Draw/ -->

 <g>
  <title>background</title>
  <rect fill="none" id="canvas_background" height="502" width="502" y="-1" x="-1"/>
  <g display="none" overflow="visible" y="0" x="0" height="100%" width="100%" id="canvasGrid">
   <rect fill="url(#gridpattern)" stroke-width="0" y="0" x="0" height="100%" width="100%"/>
  </g>
 </g>
 <g>
  <title>Layer 1</title>
  <!-- Created with Method Draw - http://github.com/duopixel/Method-Draw/ -->
  <g stroke="null" id="svg_25">
   <g stroke="null" transform="matrix(0.984786370106519,0,0,0.984786370106519,-3897.4986951499013,-2758.4661707289556) " id="svg_22">
    <title stroke="null" transform="translate(131.92437744140625,240.85275268554688) translate(3826.8466796875,0) translate(0,2561.11083984375) ">background</title>
    <rect stroke="null" x="3957.771057" y="2800.963593" width="502" height="502" id="svg_20" fill="none"/>
    <g stroke="null" id="svg_19" display="none">
     <rect stroke="null" id="svg_23" width="580" height="400" x="3958.771057" y="2801.963593" stroke-width="0" fill="url(#gridpattern)"/>
    </g>
   </g>
   <g stroke="null" transform="matrix(0.984786370106519,0,0,0.984786370106519,-3897.4986951499013,-2758.4661707289556) " id="svg_24">
    <title fill="#5a5a5a" stroke="null" transform="translate(131.92437744140625,240.85275268554688) translate(3826.8466796875,0) translate(0,2561.11083984375) ">Layer 1</title>
    <g stroke="null" id="svg_12">
     <g stroke="null" id="svg_18" transform="matrix(15.736110170254538,0,0,15.736110170254538,69.31740654213688,58.3768180483406) "/>
     <g stroke="null" id="svg_13" transform="matrix(15.736110170254538,0,0,15.736110170254538,69.31740654213688,58.3768180483406) ">
      <g stroke="null" id="svg_14">
       <path stroke="null" d="m258.866412,182.976865c0,1.703 -1.383,3.08599 -3.082,3.08599c-1.703,0 -3.086,-1.383 -3.086,-3.086c0,-1.699 1.383,-3.078 3.086,-3.078c1.699,0 3.082,1.379 3.082,3.078l0,0.00001z" fill="#5a5a5a" id="svg_17"/>
       <g stroke="null" id="svg_15">
        <path stroke="null" d="m247.167412,174.363855l0,13.273l18.727,18.727c0,0 0,-10.79299 0,-13.26999c2.477,0 13.273,0 13.273,0l-18.727,-18.73001l-13.273,0zm11.797,3.56201c0.773,0.77 7.879,7.883 11.602,11.605c-3.102,0 -8.234,0 -8.234,0s0,5.133 0,8.227c-3.724,-3.718 -10.829,-10.828 -11.603,-11.593c0,-1.055 0,-5.961 0,-8.238c2.278,-0.001 7.18,-0.001 8.235,-0.001z" fill="#5a5a5a" id="svg_16"/>
       </g>
      </g>
     </g>
    </g>
   </g>
  </g>
 </g>
</svg>