<svg width="500" height="500" xmlns="http://www.w3.org/2000/svg">
 <!-- Created with Method Draw - http://github.com/duopixel/Method-Draw/ -->

 <g>
  <title>background</title>
  <rect fill="none" id="canvas_background" height="502" width="502" y="-1" x="-1"/>
  <g display="none" overflow="visible" y="0" x="0" height="100%" width="100%" id="canvasGrid">
   <rect fill="url(#gridpattern)" stroke-width="0" y="1" x="1" height="400" width="580"/>
  </g>
 </g>
 <g>
  <title>Layer 1</title>
  <linearGradient y2="0.652709" y1="0.133765" x2="0.937378" x1="-0.063447" id="svg_7">
   <stop stop-color="#3B5998" offset="0"/>
   <stop stop-color="#336699" offset="1"/>
  </linearGradient>
  <g stroke="null" id="svg_21">
   <path stroke="null" id="svg_14" fill="#fbfbfb" d="m507.419262,83.5378c-18.94114,8.773529 -39.282348,14.695242 -60.669583,17.328979c21.805646,-13.621617 38.558175,-35.19477 46.459705,-60.894669c-20.421671,12.598319 -43.015861,21.791233 -67.074489,26.706422c-19.279088,-21.388623 -46.733281,-34.75861 -77.132444,-34.75861c-58.336138,0 -105.600479,49.286098 -105.600479,110.09689c0,8.622551 0.917285,17.043797 2.719671,25.095985c-87.785829,-4.596457 -165.61026,-48.430553 -217.718512,-115.04563c-9.076298,16.272129 -14.290342,35.177995 -14.290342,55.35879c0,38.21434 18.651471,71.899325 46.974672,91.660736c-17.299682,-0.587139 -33.585523,-5.519104 -47.827587,-13.772596c-0.016093,0.452936 -0.016093,0.939422 -0.016093,1.375582c0,53.362518 36.40175,97.86763 84.728211,107.983191c-8.851,2.499533 -18.184782,3.85834 -27.824326,3.85834c-6.823317,0 -13.421335,-0.687791 -19.858426,-1.962721c13.421335,43.716669 52.446199,75.55636 98.64842,76.462232c-36.128174,29.524688 -81.670593,47.155624 -131.15573,47.155624c-8.529146,0 -16.945642,-0.520037 -25.201211,-1.543336c46.733281,31.202227 102.253191,49.437077 161.908933,49.437077c194.271408,0 300.531689,-167.770684 300.531689,-313.280424c0,-4.764211 -0.128742,-9.528422 -0.321855,-14.259082c20.64697,-15.517237 38.542083,-34.892813 52.719776,-57.002778z"/>
   <g stroke="null" transform="matrix(16.092727647380286,0,0,16.77539085352582,476.89565574073555,440.06135693301167) " id="svg_15"/>
   <g stroke="null" transform="matrix(16.092727647380286,0,0,16.77539085352582,476.89565574073555,440.06135693301167) " id="svg_16"/>
   <g stroke="null" transform="matrix(16.092727647380286,0,0,16.77539085352582,476.89565574073555,440.06135693301167) " id="svg_17"/>
   <g stroke="null" transform="matrix(16.092727647380286,0,0,16.77539085352582,476.89565574073555,440.06135693301167) " id="svg_18"/>
   <g stroke="null" transform="matrix(16.092727647380286,0,0,16.77539085352582,476.89565574073555,440.06135693301167) " id="svg_19"/>
   <g stroke="null" transform="matrix(16.092727647380286,0,0,16.77539085352582,476.89565574073555,440.06135693301167) " id="svg_20"/>
  </g>
 </g>
</svg>